# xmcd
#
# Track frame offsets:
#	150
#	20282
#	35475
#	48993
#	61437
#	75351
#	84736
#	93457
#	106985
#	116336
#	128656
#	141159
#	142017
#	155211
#	168955
#	181735
#	195394
#	208594
#	222028
#	231060
#	240438
#	241296
#	254998
#	264900
#
# Disc length: 3773 seconds
#
# Revision: 1
# Processed by: cddbd v1.5.1PL0 Copyright (c) Steve Scherf et al.
# Submitted via: CDex 1.50Beta5
#
DISCID=460ebb18
DTITLE=Orbit/Clover - さよらなエトランジュ Sound Track
DYEAR=2003
DGENRE=Soundtrack
TTITLE0=NeverSay Good-By Vo
TTITLE1=Ogenki
TTITLE2=Phantom
TTITLE3=Cloud
TTITLE4=SUM&MOON
TTITLE5=プリズムの向こう
TTITLE6=動き出した朝
TTITLE7=そばに……
TTITLE8=Dear Everyday
TTITLE9=Raze Power
TTITLE10=Funny Girl
TTITLE11=アイキャッチ1
TTITLE12=The Heretic
TTITLE13=Meditation
TTITLE14=いつもの道
TTITLE15=デ・ジャ・ヴ
TTITLE16=灰色の足音
TTITLE17=影
TTITLE18=道草
TTITLE19=かすみゆく君へ
TTITLE20=アイキャッチ2
TTITLE21=幾千の夜を越えて
TTITLE22=NeverSay Good-By
TTITLE23=As Close As Posible Vo
EXTD=
EXTT0=
EXTT1=
EXTT2=
EXTT3=
EXTT4=
EXTT5=
EXTT6=
EXTT7=
EXTT8=
EXTT9=
EXTT10=
EXTT11=
EXTT12=
EXTT13=
EXTT14=
EXTT15=
EXTT16=
EXTT17=
EXTT18=
EXTT19=
EXTT20=
EXTT21=
EXTT22=
EXTT23=
PLAYORDER=
